<svg width="142" height="56" viewBox="0 0 142 56" fill="none" xmlns="http://www.w3.org/2000/svg">
<path d="M29.1914 11.0722H27.1131L31.8418 6.34345C32.926 5.2616 33.2328 3.70919 32.6469 2.29287C32.061 0.878856 30.7462 0 29.2145 0H9.29374C4.17054 0 0 4.17053 0 9.29373V40.2636C0 42.0974 1.40248 43.9959 3.74841 43.9959C4.72415 43.9959 5.65144 43.606 6.3596 42.8979L31.8257 17.4318C32.9122 16.3453 33.2213 14.7906 32.6331 13.372C32.0448 11.9534 30.7277 11.0722 29.1914 11.0722ZM2.76805 35.4172L24.3197 13.8633C24.3543 13.8472 24.3912 13.8403 24.4304 13.8403H29.1891C29.7658 13.8403 29.9988 14.2532 30.0726 14.4308C30.1464 14.6084 30.2733 15.0651 29.865 15.4734L4.40121 40.9395C4.20744 41.1332 3.99522 41.2255 3.74841 41.2255C3.27322 41.2255 2.76805 40.8887 2.76805 40.2613V35.4149V35.4172ZM2.76805 31.4797V9.29373C2.76805 5.69526 5.69527 2.76805 9.29374 2.76805H29.2122C29.7843 2.76805 30.0149 3.17634 30.0887 3.35396C30.1626 3.52926 30.2871 3.98369 29.8835 4.38736L22.5112 11.7596C22.4259 11.8288 22.352 11.8957 22.2851 11.9626L2.76805 31.4774V31.4797Z" fill="#648FF3"/>
<path d="M70.7073 10.7617H72.5895L79.2167 31.9373L85.8831 10.7617H87.8438L80.7069 32.8392H77.7658L71.6484 13.2322L65.2565 32.8392H62.2762L55.4922 10.7617H57.4137L63.8056 31.9373L70.7073 10.7617Z" fill="white"/>
<path d="M94.8631 33.231C93.3983 33.231 92.1827 32.8573 91.2161 32.1123C90.2496 31.3672 89.5299 30.373 89.0594 29.132C88.5888 27.891 88.3535 26.5116 88.3535 24.9938C88.3535 23.4759 88.5957 22.0204 89.0801 20.7794C89.5645 19.5384 90.2888 18.5834 91.2554 17.9168C92.2219 17.2501 93.426 16.918 94.8631 16.918C96.4062 16.918 97.6334 17.264 98.5492 17.956C99.4649 18.648 100.118 19.5499 100.51 20.6595L100.588 20.4472V16.918H102.392V32.8389H100.902L100.588 29.6164L100.51 29.5449C100.092 30.5114 99.4257 31.3672 98.51 32.1123C97.5942 32.8573 96.3786 33.231 94.8631 33.231ZM95.5297 31.584C97.2021 31.584 98.4569 31.0027 99.2942 29.8402C100.129 28.6776 100.549 27.0744 100.549 25.0353C100.549 22.8647 100.111 21.2569 99.2366 20.2119C98.36 19.167 97.1259 18.6434 95.5297 18.6434C93.6728 18.6434 92.3141 19.2385 91.4514 20.4265C90.5887 21.6167 90.1574 23.1392 90.1574 24.9961C90.1574 26.853 90.6026 28.5115 91.4906 29.741C92.3787 30.9704 93.7258 31.584 95.5297 31.584Z" fill="white"/>
<path d="M105.961 32.8392V10.7617H107.765V32.8392H105.961Z" fill="white"/>
<path d="M111.92 32.8392V10.7617H113.724V32.8392H111.92Z" fill="white"/>
<path d="M124.431 33.231C122.731 33.231 121.326 32.825 120.214 32.0154C119.103 31.2057 118.272 30.1654 117.725 28.8967C117.176 27.628 116.916 26.3155 116.941 24.9569C116.941 23.5451 117.229 22.2257 117.804 20.9962C118.378 19.7668 119.222 18.7818 120.332 18.0367C121.444 17.2917 122.796 16.918 124.392 16.918C126.378 16.918 128.018 17.5662 129.312 18.8602C130.606 20.1543 131.33 21.8866 131.487 24.0549C131.513 24.1864 131.526 24.4724 131.526 24.9176H118.664C118.664 27.0098 119.16 28.6568 120.154 29.8586C121.149 31.0604 122.572 31.6625 124.429 31.6625C125.762 31.6625 126.918 31.3095 127.898 30.6037C128.878 29.8978 129.485 28.9428 129.72 27.741H131.485C131.171 29.3627 130.38 30.6821 129.111 31.7017C127.843 32.7212 126.281 33.231 124.426 33.231H124.431ZM118.784 23.8589H129.686C129.66 23.1784 129.471 22.4218 129.118 21.5844C128.765 20.7471 128.203 20.0159 127.432 19.3885C126.662 18.761 125.647 18.4473 124.394 18.4473C122.669 18.4473 121.347 18.9825 120.434 20.0551C119.518 21.1277 118.969 22.3941 118.787 23.8589H118.784Z" fill="white"/>
<path d="M138.154 32.8392C137.317 32.8392 136.782 32.6039 136.547 32.1333C136.311 31.6627 136.194 31.0999 136.194 30.4471V18.3692H133.566V16.9183C134.508 16.9183 135.16 16.8606 135.527 16.7406C135.892 16.623 136.115 16.277 136.194 15.7026C136.272 15.1283 136.311 14.1594 136.311 12.8008H137.919V16.9183H141.645V18.3692H137.919V31.3098H141.645V32.8392H138.154Z" fill="white"/>
<path d="M48.9197 32.8408V18.763H46.4492V16.8807H48.9197V13.3514C48.9197 12.4357 49.1089 11.776 49.4872 11.3723C49.8655 10.9663 50.539 10.7656 51.5078 10.7656H57.413L58.0404 12.844H51.4686V16.883H55.9782V18.7653H51.4686V32.8431H48.9197V32.8408Z" fill="#648FF3"/>
<path d="M45.647 52.5V46.4875H48.0228C48.0813 46.4875 48.1509 46.4903 48.2316 46.4958C48.3123 46.4986 48.3903 46.507 48.4654 46.5209C48.7911 46.571 49.0639 46.6823 49.2838 46.8549C49.5065 47.0275 49.6735 47.246 49.7848 47.5105C49.8962 47.7721 49.9518 48.063 49.9518 48.3831C49.9518 48.7004 49.8948 48.9913 49.7807 49.2557C49.6693 49.5174 49.5023 49.7359 49.2796 49.9113C49.0597 50.0839 48.7883 50.1952 48.4654 50.2453C48.3903 50.2564 48.3123 50.2648 48.2316 50.2704C48.1509 50.2759 48.0813 50.2787 48.0228 50.2787H46.3903V52.5H45.647ZM46.3903 49.5731H47.9978C48.0507 49.5731 48.1105 49.5703 48.1773 49.5647C48.2469 49.5592 48.3123 49.5494 48.3736 49.5355C48.5656 49.491 48.7215 49.4102 48.8412 49.2933C48.9637 49.1736 49.0527 49.0345 49.1084 48.8758C49.1641 48.7143 49.1919 48.5501 49.1919 48.3831C49.1919 48.2161 49.1641 48.0532 49.1084 47.8946C49.0527 47.7331 48.9637 47.5926 48.8412 47.4729C48.7215 47.3532 48.5656 47.2725 48.3736 47.2307C48.3123 47.214 48.2469 47.2043 48.1773 47.2015C48.1105 47.1959 48.0507 47.1931 47.9978 47.1931H46.3903V49.5731ZM52.8316 52.6253C52.3834 52.6253 51.9965 52.5237 51.6708 52.3205C51.348 52.1173 51.0988 51.8361 50.9235 51.477C50.7481 51.118 50.6604 50.706 50.6604 50.2411C50.6604 49.7679 50.7495 49.3532 50.9276 48.9969C51.1058 48.6406 51.3577 48.3636 51.6834 48.166C52.009 47.9656 52.3918 47.8654 52.8316 47.8654C53.2825 47.8654 53.6708 47.967 53.9965 48.1702C54.3222 48.3706 54.5713 48.6503 54.7439 49.0094C54.9193 49.3657 55.007 49.7763 55.007 50.2411C55.007 50.7116 54.9193 51.1263 54.7439 51.4854C54.5685 51.8417 54.318 52.1214 53.9923 52.3246C53.6667 52.5251 53.2797 52.6253 52.8316 52.6253ZM52.8316 51.9196C53.2992 51.9196 53.6472 51.7637 53.8754 51.452C54.1037 51.1402 54.2178 50.7366 54.2178 50.2411C54.2178 49.7317 54.1023 49.3267 53.8713 49.0261C53.6402 48.7227 53.2937 48.571 52.8316 48.571C52.5171 48.571 52.2582 48.642 52.055 48.7839C51.8518 48.9259 51.7001 49.1221 51.5999 49.3727C51.4997 49.6232 51.4496 49.9127 51.4496 50.2411C51.4496 50.7477 51.5665 51.1541 51.8003 51.4603C52.0341 51.7665 52.3779 51.9196 52.8316 51.9196ZM56.8905 52.5L55.5126 47.9864L56.2517 47.9906L57.2579 51.2891L58.2725 47.9906H58.9281L59.9385 51.2891L60.9489 47.9906H61.6838L60.3059 52.5H59.688L58.5982 49.072L57.5084 52.5H56.8905ZM64.3958 52.6253C63.9532 52.6253 63.5663 52.5278 63.2351 52.333C62.9066 52.1354 62.6505 51.8612 62.4668 51.5104C62.2831 51.1569 62.1912 50.745 62.1912 50.2745C62.1912 49.7818 62.2817 49.356 62.4626 48.9969C62.6436 48.635 62.8955 48.3567 63.2184 48.1618C63.5441 47.9642 63.9254 47.8654 64.3624 47.8654C64.8161 47.8654 65.2017 47.9697 65.519 48.1785C65.8391 48.3873 66.0785 48.6851 66.2372 49.072C66.3986 49.459 66.4682 49.9196 66.4459 50.4541H65.6944V50.1869C65.686 49.6329 65.5733 49.2196 65.3562 48.9468C65.139 48.6712 64.8161 48.5334 64.3875 48.5334C63.9282 48.5334 63.5788 48.6809 63.3395 48.976C63.1001 49.2711 62.9804 49.6942 62.9804 50.2453C62.9804 50.777 63.1001 51.1889 63.3395 51.4812C63.5788 51.7735 63.9198 51.9196 64.3624 51.9196C64.6603 51.9196 64.9191 51.8514 65.139 51.715C65.3589 51.5786 65.5315 51.3824 65.6568 51.1263L66.3708 51.3727C66.1954 51.7707 65.931 52.0797 65.5774 52.2996C65.2267 52.5167 64.8328 52.6253 64.3958 52.6253ZM62.7299 50.4541V49.857H66.0618V50.4541H62.7299ZM67.5425 52.5V47.9906H68.2064V49.0804L68.0979 48.9384C68.1508 48.7992 68.2189 48.6712 68.3025 48.5543C68.3887 48.4374 68.4848 48.3413 68.5906 48.2662C68.7075 48.1715 68.8397 48.0992 68.9872 48.0491C69.1347 47.999 69.2851 47.9697 69.4382 47.9614C69.5912 47.9503 69.7346 47.96 69.8682 47.9906V48.6879C69.7123 48.6461 69.5411 48.635 69.3546 48.6545C69.1681 48.674 68.9956 48.7422 68.8369 48.8591C68.6922 48.9621 68.5794 49.0873 68.4987 49.2349C68.4208 49.3824 68.3665 49.5425 68.3359 49.715C68.3052 49.8848 68.2899 50.0588 68.2899 50.237V52.5H67.5425ZM72.6973 52.6253C72.2547 52.6253 71.8678 52.5278 71.5365 52.333C71.2081 52.1354 70.952 51.8612 70.7683 51.5104C70.5845 51.1569 70.4927 50.745 70.4927 50.2745C70.4927 49.7818 70.5832 49.356 70.7641 48.9969C70.945 48.635 71.1969 48.3567 71.5198 48.1618C71.8455 47.9642 72.2269 47.8654 72.6639 47.8654C73.1176 47.8654 73.5031 47.9697 73.8204 48.1785C74.1406 48.3873 74.3799 48.6851 74.5386 49.072C74.7001 49.459 74.7696 49.9196 74.7474 50.4541H73.9958V50.1869C73.9875 49.6329 73.8747 49.2196 73.6576 48.9468C73.4405 48.6712 73.1176 48.5334 72.6889 48.5334C72.2296 48.5334 71.8803 48.6809 71.6409 48.976C71.4015 49.2711 71.2818 49.6942 71.2818 50.2453C71.2818 50.777 71.4015 51.1889 71.6409 51.4812C71.8803 51.7735 72.2213 51.9196 72.6639 51.9196C72.9617 51.9196 73.2206 51.8514 73.4405 51.715C73.6604 51.5786 73.833 51.3824 73.9582 51.1263L74.6722 51.3727C74.4969 51.7707 74.2324 52.0797 73.8789 52.2996C73.5282 52.5167 73.1343 52.6253 72.6973 52.6253ZM71.0313 50.4541V49.857H74.3632V50.4541H71.0313ZM77.6143 52.6253C77.194 52.6253 76.8336 52.5209 76.5329 52.3121C76.2323 52.1006 75.9999 51.8152 75.8356 51.4562C75.6742 51.0971 75.5935 50.6921 75.5935 50.2411C75.5935 49.7902 75.6742 49.3852 75.8356 49.0261C75.9999 48.667 76.2323 48.3845 76.5329 48.1785C76.8336 47.9697 77.1926 47.8654 77.6102 47.8654C78.0361 47.8654 78.3937 47.9683 78.6832 48.1743C78.9727 48.3803 79.1912 48.6628 79.3388 49.0219C79.4891 49.381 79.5642 49.7874 79.5642 50.2411C79.5642 50.6893 79.4891 51.0943 79.3388 51.4562C79.1912 51.8152 78.9727 52.1006 78.6832 52.3121C78.3937 52.5209 78.0374 52.6253 77.6143 52.6253ZM77.7062 51.9447C78.0096 51.9447 78.2587 51.8723 78.4536 51.7276C78.6484 51.58 78.7918 51.3782 78.8837 51.1221C78.9783 50.8633 79.0256 50.5696 79.0256 50.2411C79.0256 49.9071 78.9783 49.6134 78.8837 49.3601C78.7918 49.104 78.6498 48.905 78.4578 48.7631C78.2657 48.6183 78.0221 48.5459 77.7271 48.5459C77.4209 48.5459 77.1676 48.6211 76.9672 48.7714C76.7695 48.9217 76.622 49.1249 76.5246 49.381C76.4299 49.6371 76.3826 49.9238 76.3826 50.2411C76.3826 50.5612 76.4313 50.8507 76.5288 51.1096C76.6262 51.3657 76.7723 51.5689 76.9672 51.7192C77.1648 51.8695 77.4111 51.9447 77.7062 51.9447ZM79.0256 52.5V49.1806H78.9421V46.4875H79.6895V52.5H79.0256ZM84.9361 52.6253C84.513 52.6253 84.1567 52.5209 83.8672 52.3121C83.5777 52.1006 83.3578 51.8152 83.2075 51.4562C83.06 51.0943 82.9862 50.6893 82.9862 50.2411C82.9862 49.7874 83.06 49.381 83.2075 49.0219C83.3578 48.6628 83.5777 48.3803 83.8672 48.1743C84.1595 47.9683 84.5172 47.8654 84.9403 47.8654C85.3578 47.8654 85.7169 47.9697 86.0175 48.1785C86.3209 48.3845 86.5533 48.667 86.7148 49.0261C86.8762 49.3852 86.957 49.7902 86.957 50.2411C86.957 50.6921 86.8762 51.0971 86.7148 51.4562C86.5533 51.8152 86.3209 52.1006 86.0175 52.3121C85.7169 52.5209 85.3564 52.6253 84.9361 52.6253ZM82.8609 52.5V46.4875H83.6083V49.1806H83.5248V52.5H82.8609ZM84.8442 51.9447C85.1421 51.9447 85.3884 51.8695 85.5833 51.7192C85.7781 51.5689 85.9243 51.3657 86.0217 51.1096C86.1191 50.8507 86.1678 50.5612 86.1678 50.2411C86.1678 49.9238 86.1191 49.6371 86.0217 49.381C85.927 49.1249 85.7795 48.9217 85.5791 48.7714C85.3815 48.6211 85.1295 48.5459 84.8234 48.5459C84.5311 48.5459 84.2889 48.6183 84.0968 48.7631C83.9048 48.905 83.7614 49.104 83.6668 49.3601C83.5721 49.6134 83.5248 49.9071 83.5248 50.2411C83.5248 50.5696 83.5707 50.8633 83.6626 51.1221C83.7572 51.3782 83.902 51.58 84.0968 51.7276C84.2917 51.8723 84.5408 51.9447 84.8442 51.9447ZM88.4128 54.5042L89.2854 52.1326L89.298 52.834L87.3272 47.9906H88.108L89.6529 51.8862H89.3856L90.8345 47.9906H91.5902L89.1351 54.5042H88.4128Z" fill="white"/>
<path fill-rule="evenodd" clip-rule="evenodd" d="M99.4294 44.1111L96.4384 45.6756C96.2583 45.7698 96.1658 45.9036 96.1523 46.0471H96.1506V46.0839C96.1506 46.084 96.1506 46.084 96.1506 46.0841V53.8687C96.15 53.88 96.15 53.894 96.1505 53.9113C96.155 54.0656 96.2467 54.2206 96.4379 54.3206L99.4289 55.8851C99.722 56.0384 100.168 56.0384 100.461 55.8851L103.452 54.3206C103.644 54.2201 103.742 54.0661 103.746 53.911H103.746V46.1026C103.746 46.097 103.746 46.0914 103.746 46.0858V46.0471H103.743C103.726 45.9052 103.629 45.7678 103.453 45.6756L100.462 44.1111C100.169 43.9578 99.7225 43.9578 99.4294 44.1111ZM96.6214 53.896L99.4289 55.3567C99.598 55.4462 99.774 55.5333 99.9451 55.5339C100.103 55.5344 100.256 55.46 100.411 55.3848L100.441 55.3703L103.276 53.8831V50.4367L100.461 51.9087C100.168 52.062 99.7222 52.062 99.4291 51.9087L96.6214 50.4401V53.896ZM96.6214 49.4111L99.3005 48.0098L96.6214 46.6085V49.4111ZM100.59 48.01L103.276 46.6054V49.4145L100.59 48.01ZM100.242 44.523L103.233 46.0875L103.24 46.0911L103.244 46.0938L103.242 46.0952L103.233 46.1001L100.242 47.6646C100.086 47.746 99.8048 47.746 99.6492 47.6646L96.6582 46.1001L96.6514 46.0965L96.6467 46.0938L96.6492 46.0923L96.6582 46.0875L99.6492 44.523C99.8048 44.4416 100.086 44.4416 100.242 44.523ZM100.241 48.3544L103.232 49.9189L103.239 49.9226L103.244 49.9252L103.241 49.9267L103.232 49.9316L100.241 51.4961C100.223 51.5058 100.202 51.5143 100.181 51.5217V48.3287C100.202 48.3361 100.223 48.3447 100.241 48.3544ZM99.7097 48.3286C99.6879 48.3361 99.6674 48.3447 99.6487 48.3544L96.6577 49.9189L96.6487 49.9238L96.6462 49.9252L96.6509 49.9279L96.6577 49.9316L99.6487 51.4961C99.6674 51.5058 99.6879 51.5144 99.7097 51.5218V48.3286ZM103.717 44.6954L103.474 45.0943L103.644 45.1959L103.699 45.2294C103.746 45.2582 103.784 45.2826 103.819 45.306L103.829 45.3121C103.988 45.4196 104.075 45.508 104.133 45.6236C104.204 45.7632 104.239 45.9612 104.239 46.2625H104.71L104.71 46.2415C104.706 45.5535 104.537 45.2228 104.083 44.9194C104.04 44.891 103.995 44.8622 103.94 44.8285L103.908 44.8091L103.717 44.6954ZM96.4294 54.9091L96.1857 55.3081L95.9956 55.1944L95.9636 55.1749C95.9086 55.1413 95.8631 55.1124 95.8206 55.0841C95.3662 54.7807 95.1968 54.45 95.1934 53.7619L95.1934 53.741H95.6642C95.6642 54.0423 95.6995 54.2403 95.7697 54.3798C95.8279 54.4955 95.9152 54.5838 96.0746 54.6914L96.0837 54.6975C96.1187 54.7208 96.1573 54.7453 96.2042 54.7741L96.2595 54.8076L96.4294 54.9091Z" fill="white"/>
<path fill-rule="evenodd" clip-rule="evenodd" d="M109.494 49.1974V53.5829H108.448V49.1974H107.443V48.3944H108.448V47.7355C108.448 47.159 108.594 46.7198 108.888 46.4178C109.181 46.1158 109.594 45.9648 110.125 45.9648C110.401 45.9648 110.653 45.9992 110.881 46.0678V46.9223C110.695 46.8673 110.519 46.8399 110.353 46.8399C109.78 46.8399 109.494 47.1659 109.494 47.8179V48.3944H110.715V49.1974H109.494ZM114.79 53.4077C114.49 53.5724 114.139 53.6548 113.739 53.6548C113.276 53.6548 112.871 53.545 112.522 53.3254C112.174 53.1058 111.903 52.7952 111.709 52.3937C111.516 51.9922 111.419 51.5238 111.419 50.9885C111.419 50.4531 111.518 49.9796 111.715 49.5678C111.911 49.156 112.186 48.8369 112.538 48.6104C112.89 48.3839 113.29 48.2707 113.739 48.2707C114.139 48.2707 114.488 48.3547 114.785 48.5229C115.082 48.691 115.309 48.9295 115.468 49.2384V48.3942H116.504V53.5827H115.468V52.6974C115.316 53.0062 115.09 53.243 114.79 53.4077ZM113.988 52.8312C113.511 52.8312 113.14 52.6699 112.875 52.3474C112.609 52.0248 112.476 51.5718 112.476 50.9884C112.476 50.3982 112.609 49.9367 112.875 49.6038C113.14 49.2709 113.508 49.1045 113.977 49.1045C114.454 49.1045 114.821 49.2658 115.08 49.5884C115.339 49.9109 115.469 50.3708 115.469 50.9679C115.469 51.5581 115.339 52.0162 115.08 52.3422C114.821 52.6682 114.457 52.8312 113.988 52.8312ZM119.072 50.6282V53.5827H118.036V49.8561C118.036 49.3139 118.009 48.8266 117.954 48.3942H118.927L119.02 49.2898C119.186 48.9604 119.426 48.7082 119.74 48.5332C120.054 48.3582 120.411 48.2707 120.812 48.2707C122.061 48.2707 122.686 48.9638 122.686 50.3502V53.5827H121.64V50.412C121.64 49.959 121.552 49.6296 121.376 49.4237C121.2 49.2178 120.919 49.1148 120.532 49.1148C120.09 49.1148 119.736 49.2521 119.471 49.5266C119.205 49.8011 119.072 50.1683 119.072 50.6282ZM126.185 53.6546C126.475 53.6546 126.734 53.6168 126.962 53.5413V52.6972C126.776 52.7521 126.593 52.7795 126.413 52.7795C126.137 52.7795 125.921 52.7057 125.766 52.5582C125.611 52.4106 125.533 52.1584 125.533 51.8015V49.1969H126.972V48.394H125.533V46.7365L124.487 47.0968V48.394H123.472V49.1969H124.487V51.8839C124.487 52.4604 124.636 52.8996 124.933 53.2016C125.229 53.5036 125.647 53.6546 126.185 53.6546ZM131.518 53.3254C131.132 53.545 130.687 53.6548 130.183 53.6548C129.672 53.6548 129.223 53.545 128.836 53.3254C128.45 53.1058 128.151 52.7935 127.941 52.3886C127.73 51.9836 127.625 51.5101 127.625 50.9679C127.625 50.4257 127.73 49.9504 127.941 49.5421C128.151 49.1337 128.45 48.8197 128.836 48.6001C129.223 48.3805 129.672 48.2707 130.183 48.2707C130.687 48.2707 131.132 48.3805 131.518 48.6001C131.905 48.8197 132.203 49.1337 132.414 49.5421C132.625 49.9504 132.73 50.4257 132.73 50.9679C132.73 51.5101 132.625 51.9836 132.414 52.3886C132.203 52.7935 131.905 53.1058 131.518 53.3254ZM130.172 52.8312C129.696 52.8312 129.328 52.6734 129.069 52.3576C128.81 52.0419 128.681 51.5787 128.681 50.9679C128.681 50.3708 128.812 49.9109 129.074 49.5884C129.337 49.2658 129.706 49.1045 130.182 49.1045C130.652 49.1045 131.016 49.2658 131.275 49.5884C131.534 49.9109 131.663 50.3708 131.663 50.9679C131.663 51.5787 131.535 52.0419 131.28 52.3576C131.025 52.6734 130.655 52.8312 130.172 52.8312ZM134.987 50.6487V53.5827H133.952V49.8561C133.952 49.3139 133.924 48.8266 133.869 48.3942H134.842L134.936 49.259C135.088 48.9433 135.305 48.6996 135.588 48.528C135.871 48.3565 136.202 48.2707 136.582 48.2707C137.39 48.2707 137.918 48.6035 138.166 49.2693C138.325 48.9604 138.558 48.7168 138.865 48.5383C139.173 48.3599 139.519 48.2707 139.906 48.2707C141.066 48.2707 141.646 48.9638 141.646 50.3502V53.5827H140.6V50.4017C140.6 49.9556 140.522 49.6296 140.367 49.4237C140.211 49.2178 139.961 49.1148 139.616 49.1148C139.216 49.1148 138.9 49.2521 138.669 49.5266C138.437 49.8011 138.322 50.1752 138.322 50.6487V53.5827H137.276V50.4017C137.276 49.9556 137.198 49.6296 137.043 49.4237C136.888 49.2178 136.637 49.1148 136.292 49.1148C135.892 49.1148 135.574 49.2521 135.339 49.5266C135.105 49.8011 134.987 50.1752 134.987 50.6487Z" fill="white"/>
</svg>
